<?xml version="1.0" encoding="UTF-8" standalone="no"?>
<!DOCTYPE svg PUBLIC "-//W3C//DTD SVG 1.1//EN"
 "http://www.w3.org/Graphics/SVG/1.1/DTD/svg11.dtd">
<!-- Generated by graphviz version 2.40.1 (20161225.0304)
 -->
<!-- Pages: 1 -->
<svg width="1223pt" height="1023pt"
 viewBox="0.00 0.00 1222.96 1022.80" xmlns="http://www.w3.org/2000/svg" xmlns:xlink="http://www.w3.org/1999/xlink">
<g id="graph0" class="graph" transform="scale(1 1) rotate(0) translate(12.4821 994)">
<polygon fill="#ffffff" stroke="transparent" points="-12.4821,28.8 -12.4821,-994 1210.4821,-994 1210.4821,28.8 -12.4821,28.8"/>
<text text-anchor="middle" x="599" y="16.6" font-family="Helvetica,Arial,sans-serif" font-size="14.00" fill="#000000">((+ (* (X) (&#45; (&#45; (X) (X)) (X))) (% (+ (X) (X)) (COS (&#45; (X) (X))))) (EXP (* (X) (X))) (+ (% (EXP (SIN (+ (X) (X)))) (SIN (* (X) (EXP (* (X) (X)))))) (* (X) (X))) (% (EXP (% (X) (% (X) (X)))) (EXP (SIN (X)))))</text>
<g id="clust1" class="cluster">
<title>cluster01</title>
<polygon fill="none" stroke="#000000" points="684.2381,-585.1409 684.2381,-990.1409 1060.2381,-990.1409 1060.2381,-585.1409 684.2381,-585.1409"/>
<text text-anchor="middle" x="872.2381" y="-973.5409" font-family="Helvetica,Arial,sans-serif" font-size="14.00" fill="#000000">(+ (* (X) (&#45; (&#45; (X) (X)) (X))) (% (+ (X) (X)) (COS (&#45; (X) (X)))))</text>
</g>
<g id="clust2" class="cluster">
<title>cluster17</title>
<polygon fill="none" stroke="#000000" points="722.7381,.3591 722.7381,-179.6409 925.7381,-179.6409 925.7381,.3591 722.7381,.3591"/>
<text text-anchor="middle" x="824.2381" y="-163.0409" font-family="Helvetica,Arial,sans-serif" font-size="14.00" fill="#000000">(EXP (* (X) (X)))</text>
</g>
<g id="clust3" class="cluster">
<title>cluster21</title>
<polygon fill="none" stroke="#000000" points="138.2381,-116.6409 138.2381,-526.6409 648.2381,-526.6409 648.2381,-116.6409 138.2381,-116.6409"/>
<text text-anchor="middle" x="393.2381" y="-510.0409" font-family="Helvetica,Arial,sans-serif" font-size="14.00" fill="#000000">(+ (% (EXP (SIN (+ (X) (X)))) (SIN (* (X) (EXP (* (X) (X)))))) (* (X) (X)))</text>
</g>
<g id="clust4" class="cluster">
<title>cluster38</title>
<polygon fill="none" stroke="#000000" points="333.2381,-585.1409 333.2381,-900.1409 631.2381,-900.1409 631.2381,-585.1409 333.2381,-585.1409"/>
<text text-anchor="middle" x="482.2381" y="-883.5409" font-family="Helvetica,Arial,sans-serif" font-size="14.00" fill="#000000">(% (EXP (% (X) (% (X) (X)))) (EXP (SIN (X))))</text>
</g>
<!-- n002 -->
<g id="node1" class="node">
<title>n002</title>
<ellipse fill="none" stroke="#000000" cx="827.0764" cy="-741.7927" rx="27" ry="18"/>
<text text-anchor="middle" x="827.0764" y="-737.5927" font-family="Helvetica,Arial,sans-serif" font-size="14.00" fill="#000000">+</text>
</g>
<!-- n003 -->
<g id="node2" class="node">
<title>n003</title>
<ellipse fill="none" stroke="#000000" cx="902.936" cy="-769.4298" rx="27" ry="18"/>
<text text-anchor="middle" x="902.936" y="-765.2298" font-family="Helvetica,Arial,sans-serif" font-size="14.00" fill="#000000">*</text>
</g>
<!-- n002&#45;&#45;n003 -->
<g id="edge1" class="edge">
<title>n002&#45;&#45;n003</title>
<path fill="none" stroke="#000000" d="M851.0788,-750.5373C860.0207,-753.795 870.1619,-757.4896 879.0897,-760.7422"/>
</g>
<!-- n010 -->
<g id="node9" class="node">
<title>n010</title>
<ellipse fill="none" stroke="#000000" cx="913.5976" cy="-719.6201" rx="27" ry="18"/>
<text text-anchor="middle" x="913.5976" y="-715.4201" font-family="Helvetica,Arial,sans-serif" font-size="14.00" fill="#000000">%</text>
</g>
<!-- n002&#45;&#45;n010 -->
<g id="edge8" class="edge">
<title>n002&#45;&#45;n010</title>
<path fill="none" stroke="#000000" d="M852.5676,-735.2601C863.833,-732.3732 877.0443,-728.9876 888.2885,-726.106"/>
</g>
<!-- n004 -->
<g id="node3" class="node">
<title>n004</title>
<ellipse fill="none" stroke="#000000" cx="990.9133" cy="-716.07" rx="27" ry="18"/>
<text text-anchor="middle" x="990.9133" y="-711.87" font-family="Helvetica,Arial,sans-serif" font-size="14.00" fill="#000000">X</text>
</g>
<!-- n003&#45;&#45;n004 -->
<g id="edge2" class="edge">
<title>n003&#45;&#45;n004</title>
<path fill="none" stroke="#000000" d="M923.3409,-757.0539C937.6554,-748.3719 956.7003,-736.8208 970.9224,-728.1948"/>
</g>
<!-- n005 -->
<g id="node4" class="node">
<title>n005</title>
<ellipse fill="none" stroke="#000000" cx="902.7898" cy="-816.2256" rx="27" ry="18"/>
<text text-anchor="middle" x="902.7898" y="-812.0256" font-family="Helvetica,Arial,sans-serif" font-size="14.00" fill="#000000">&#45;</text>
</g>
<!-- n003&#45;&#45;n005 -->
<g id="edge3" class="edge">
<title>n003&#45;&#45;n005</title>
<path fill="none" stroke="#000000" d="M902.8791,-787.6563C902.8685,-791.0438 902.8574,-794.5836 902.8468,-797.9719"/>
</g>
<!-- n006 -->
<g id="node5" class="node">
<title>n006</title>
<ellipse fill="none" stroke="#000000" cx="817.2867" cy="-838.7526" rx="27" ry="18"/>
<text text-anchor="middle" x="817.2867" y="-834.5526" font-family="Helvetica,Arial,sans-serif" font-size="14.00" fill="#000000">&#45;</text>
</g>
<!-- n005&#45;&#45;n006 -->
<g id="edge4" class="edge">
<title>n005&#45;&#45;n006</title>
<path fill="none" stroke="#000000" d="M877.5985,-822.8626C866.5642,-825.7697 853.6409,-829.1746 842.5934,-832.0852"/>
</g>
<!-- n009 -->
<g id="node8" class="node">
<title>n009</title>
<ellipse fill="none" stroke="#000000" cx="994.3655" cy="-842.3014" rx="27" ry="18"/>
<text text-anchor="middle" x="994.3655" y="-838.1014" font-family="Helvetica,Arial,sans-serif" font-size="14.00" fill="#000000">X</text>
</g>
<!-- n005&#45;&#45;n009 -->
<g id="edge7" class="edge">
<title>n005&#45;&#45;n009</title>
<path fill="none" stroke="#000000" d="M927.8133,-823.3509C940.7347,-827.0302 956.4552,-831.5066 969.3723,-835.1847"/>
</g>
<!-- n007 -->
<g id="node6" class="node">
<title>n007</title>
<ellipse fill="none" stroke="#000000" cx="798.1045" cy="-884.7142" rx="27" ry="18"/>
<text text-anchor="middle" x="798.1045" y="-880.5142" font-family="Helvetica,Arial,sans-serif" font-size="14.00" fill="#000000">X</text>
</g>
<!-- n006&#45;&#45;n007 -->
<g id="edge5" class="edge">
<title>n006&#45;&#45;n007</title>
<path fill="none" stroke="#000000" d="M810.0347,-856.1287C808.507,-859.7893 806.8949,-863.652 805.3667,-867.3135"/>
</g>
<!-- n008 -->
<g id="node7" class="node">
<title>n008</title>
<ellipse fill="none" stroke="#000000" cx="750.3995" cy="-798.2687" rx="27" ry="18"/>
<text text-anchor="middle" x="750.3995" y="-794.0687" font-family="Helvetica,Arial,sans-serif" font-size="14.00" fill="#000000">X</text>
</g>
<!-- n006&#45;&#45;n008 -->
<g id="edge6" class="edge">
<title>n006&#45;&#45;n008</title>
<path fill="none" stroke="#000000" d="M797.2184,-826.6061C788.7526,-821.4822 778.9179,-815.5297 770.4537,-810.4067"/>
</g>
<!-- n011 -->
<g id="node10" class="node">
<title>n011</title>
<ellipse fill="none" stroke="#000000" cx="862.7415" cy="-660.8514" rx="27" ry="18"/>
<text text-anchor="middle" x="862.7415" y="-656.6514" font-family="Helvetica,Arial,sans-serif" font-size="14.00" fill="#000000">+</text>
</g>
<!-- n010&#45;&#45;n011 -->
<g id="edge9" class="edge">
<title>n010&#45;&#45;n011</title>
<path fill="none" stroke="#000000" d="M899.9691,-703.8712C892.6724,-695.4392 883.71,-685.0824 876.4076,-676.6438"/>
</g>
<!-- n014 -->
<g id="node13" class="node">
<title>n014</title>
<ellipse fill="none" stroke="#000000" cx="977.4032" cy="-792.0706" rx="31.9205" ry="18"/>
<text text-anchor="middle" x="977.4032" y="-787.8706" font-family="Helvetica,Arial,sans-serif" font-size="14.00" fill="#000000">COS</text>
</g>
<!-- n010&#45;&#45;n014 -->
<g id="edge12" class="edge">
<title>n010&#45;&#45;n014</title>
<path fill="none" stroke="#000000" d="M927.4425,-735.3408C937.9982,-747.3267 952.4866,-763.7781 963.1436,-775.8789"/>
</g>
<!-- n012 -->
<g id="node11" class="node">
<title>n012</title>
<ellipse fill="none" stroke="#000000" cx="887.9824" cy="-611.1113" rx="27" ry="18"/>
<text text-anchor="middle" x="887.9824" y="-606.9113" font-family="Helvetica,Arial,sans-serif" font-size="14.00" fill="#000000">X</text>
</g>
<!-- n011&#45;&#45;n012 -->
<g id="edge10" class="edge">
<title>n011&#45;&#45;n012</title>
<path fill="none" stroke="#000000" d="M871.428,-643.7337C873.9378,-638.7878 876.6783,-633.3874 879.1942,-628.4294"/>
</g>
<!-- n013 -->
<g id="node12" class="node">
<title>n013</title>
<ellipse fill="none" stroke="#000000" cx="785.318" cy="-645.1867" rx="27" ry="18"/>
<text text-anchor="middle" x="785.318" y="-640.9867" font-family="Helvetica,Arial,sans-serif" font-size="14.00" fill="#000000">X</text>
</g>
<!-- n011&#45;&#45;n013 -->
<g id="edge11" class="edge">
<title>n011&#45;&#45;n013</title>
<path fill="none" stroke="#000000" d="M836.5294,-655.548C828.3697,-653.8971 819.38,-652.0783 811.2402,-650.4314"/>
</g>
<!-- n015 -->
<g id="node14" class="node">
<title>n015</title>
<ellipse fill="none" stroke="#000000" cx="927.0879" cy="-877.6348" rx="27" ry="18"/>
<text text-anchor="middle" x="927.0879" y="-873.4348" font-family="Helvetica,Arial,sans-serif" font-size="14.00" fill="#000000">&#45;</text>
</g>
<!-- n014&#45;&#45;n015 -->
<g id="edge13" class="edge">
<title>n014&#45;&#45;n015</title>
<path fill="none" stroke="#000000" d="M967.2212,-809.3858C958.4343,-824.3285 945.8151,-845.7881 937.0831,-860.6374"/>
</g>
<!-- n016 -->
<g id="node15" class="node">
<title>n016</title>
<ellipse fill="none" stroke="#000000" cx="987.3445" cy="-934.0429" rx="27" ry="18"/>
<text text-anchor="middle" x="987.3445" y="-929.8429" font-family="Helvetica,Arial,sans-serif" font-size="14.00" fill="#000000">X</text>
</g>
<!-- n015&#45;&#45;n016 -->
<g id="edge14" class="edge">
<title>n015&#45;&#45;n016</title>
<path fill="none" stroke="#000000" d="M942.9196,-892.4554C951.7067,-900.6812 962.6058,-910.8842 971.4094,-919.1255"/>
</g>
<!-- n017 -->
<g id="node16" class="node">
<title>n017</title>
<ellipse fill="none" stroke="#000000" cx="878.8615" cy="-940.1206" rx="27" ry="18"/>
<text text-anchor="middle" x="878.8615" y="-935.9206" font-family="Helvetica,Arial,sans-serif" font-size="14.00" fill="#000000">X</text>
</g>
<!-- n015&#45;&#45;n017 -->
<g id="edge15" class="edge">
<title>n015&#45;&#45;n017</title>
<path fill="none" stroke="#000000" d="M914.6684,-893.7265C907.5238,-902.9835 898.5721,-914.582 891.4065,-923.8663"/>
</g>
<!-- n018 -->
<g id="node17" class="node">
<title>n018</title>
<ellipse fill="none" stroke="#000000" cx="761.3411" cy="-58.3288" rx="30.215" ry="18"/>
<text text-anchor="middle" x="761.3411" y="-54.1288" font-family="Helvetica,Arial,sans-serif" font-size="14.00" fill="#000000">EXP</text>
</g>
<!-- n019 -->
<g id="node18" class="node">
<title>n019</title>
<ellipse fill="none" stroke="#000000" cx="834.249" cy="-79.3876" rx="27" ry="18"/>
<text text-anchor="middle" x="834.249" y="-75.1876" font-family="Helvetica,Arial,sans-serif" font-size="14.00" fill="#000000">*</text>
</g>
<!-- n018&#45;&#45;n019 -->
<g id="edge16" class="edge">
<title>n018&#45;&#45;n019</title>
<path fill="none" stroke="#000000" d="M788.9044,-66.2902C795.5177,-68.2004 802.5467,-70.2306 809.0466,-72.1081"/>
</g>
<!-- n020 -->
<g id="node19" class="node">
<title>n020</title>
<ellipse fill="none" stroke="#000000" cx="890.5571" cy="-25.7506" rx="27" ry="18"/>
<text text-anchor="middle" x="890.5571" y="-21.5506" font-family="Helvetica,Arial,sans-serif" font-size="14.00" fill="#000000">X</text>
</g>
<!-- n019&#45;&#45;n020 -->
<g id="edge17" class="edge">
<title>n019&#45;&#45;n020</title>
<path fill="none" stroke="#000000" d="M849.9339,-64.4467C857.7438,-57.0073 867.1579,-48.0398 874.9563,-40.6114"/>
</g>
<!-- n021 -->
<g id="node20" class="node">
<title>n021</title>
<ellipse fill="none" stroke="#000000" cx="859.1794" cy="-129.8423" rx="27" ry="18"/>
<text text-anchor="middle" x="859.1794" y="-125.6423" font-family="Helvetica,Arial,sans-serif" font-size="14.00" fill="#000000">X</text>
</g>
<!-- n019&#45;&#45;n021 -->
<g id="edge18" class="edge">
<title>n019&#45;&#45;n021</title>
<path fill="none" stroke="#000000" d="M842.8286,-96.7512C845.3639,-101.8822 848.1375,-107.4954 850.6684,-112.6176"/>
</g>
<!-- n022 -->
<g id="node21" class="node">
<title>n022</title>
<ellipse fill="none" stroke="#000000" cx="486.7139" cy="-387.0019" rx="27" ry="18"/>
<text text-anchor="middle" x="486.7139" y="-382.8019" font-family="Helvetica,Arial,sans-serif" font-size="14.00" fill="#000000">+</text>
</g>
<!-- n023 -->
<g id="node22" class="node">
<title>n023</title>
<ellipse fill="none" stroke="#000000" cx="411.7613" cy="-332.3122" rx="27" ry="18"/>
<text text-anchor="middle" x="411.7613" y="-328.1122" font-family="Helvetica,Arial,sans-serif" font-size="14.00" fill="#000000">%</text>
</g>
<!-- n022&#45;&#45;n023 -->
<g id="edge19" class="edge">
<title>n022&#45;&#45;n023</title>
<path fill="none" stroke="#000000" d="M468.1863,-373.4831C456.5683,-365.0059 441.6532,-354.123 430.0758,-345.6755"/>
</g>
<!-- n036 -->
<g id="node35" class="node">
<title>n036</title>
<ellipse fill="none" stroke="#000000" cx="550.5619" cy="-322.2421" rx="27" ry="18"/>
<text text-anchor="middle" x="550.5619" y="-318.0421" font-family="Helvetica,Arial,sans-serif" font-size="14.00" fill="#000000">*</text>
</g>
<!-- n022&#45;&#45;n036 -->
<g id="edge32" class="edge">
<title>n022&#45;&#45;n036</title>
<path fill="none" stroke="#000000" d="M501.845,-371.6547C512.0229,-361.3315 525.3843,-347.7792 535.5394,-337.4791"/>
</g>
<!-- n024 -->
<g id="node23" class="node">
<title>n024</title>
<ellipse fill="none" stroke="#000000" cx="309.5635" cy="-369.4455" rx="30.215" ry="18"/>
<text text-anchor="middle" x="309.5635" y="-365.2455" font-family="Helvetica,Arial,sans-serif" font-size="14.00" fill="#000000">EXP</text>
</g>
<!-- n023&#45;&#45;n024 -->
<g id="edge20" class="edge">
<title>n023&#45;&#45;n024</title>
<path fill="none" stroke="#000000" d="M387.8005,-341.0183C372.1072,-346.7204 351.6031,-354.1705 335.5227,-360.0133"/>
</g>
<!-- n029 -->
<g id="node28" class="node">
<title>n029</title>
<ellipse fill="none" stroke="#000000" cx="452.8803" cy="-247.8873" rx="27.2641" ry="18"/>
<text text-anchor="middle" x="452.8803" y="-243.6873" font-family="Helvetica,Arial,sans-serif" font-size="14.00" fill="#000000">SIN</text>
</g>
<!-- n023&#45;&#45;n029 -->
<g id="edge25" class="edge">
<title>n023&#45;&#45;n029</title>
<path fill="none" stroke="#000000" d="M420.2812,-314.8193C427.3853,-300.2333 437.4505,-279.5675 444.512,-265.0689"/>
</g>
<!-- n025 -->
<g id="node24" class="node">
<title>n025</title>
<ellipse fill="none" stroke="#000000" cx="298.9108" cy="-420.2849" rx="27.2641" ry="18"/>
<text text-anchor="middle" x="298.9108" y="-416.0849" font-family="Helvetica,Arial,sans-serif" font-size="14.00" fill="#000000">SIN</text>
</g>
<!-- n024&#45;&#45;n025 -->
<g id="edge21" class="edge">
<title>n024&#45;&#45;n025</title>
<path fill="none" stroke="#000000" d="M305.7778,-387.5127C304.7731,-392.3075 303.6884,-397.4842 302.6844,-402.2759"/>
</g>
<!-- n026 -->
<g id="node25" class="node">
<title>n026</title>
<ellipse fill="none" stroke="#000000" cx="387.8319" cy="-396.1359" rx="27" ry="18"/>
<text text-anchor="middle" x="387.8319" y="-391.9359" font-family="Helvetica,Arial,sans-serif" font-size="14.00" fill="#000000">+</text>
</g>
<!-- n025&#45;&#45;n026 -->
<g id="edge22" class="edge">
<title>n025&#45;&#45;n026</title>
<path fill="none" stroke="#000000" d="M324.1541,-413.4293C336.169,-410.1664 350.5024,-406.2737 362.5254,-403.0086"/>
</g>
<!-- n027 -->
<g id="node26" class="node">
<title>n027</title>
<ellipse fill="none" stroke="#000000" cx="423.2355" cy="-476.5107" rx="27" ry="18"/>
<text text-anchor="middle" x="423.2355" y="-472.3107" font-family="Helvetica,Arial,sans-serif" font-size="14.00" fill="#000000">X</text>
</g>
<!-- n026&#45;&#45;n027 -->
<g id="edge23" class="edge">
<title>n026&#45;&#45;n027</title>
<path fill="none" stroke="#000000" d="M395.5139,-413.576C401.4523,-427.0576 409.6338,-445.6316 415.5684,-459.1046"/>
</g>
<!-- n028 -->
<g id="node27" class="node">
<title>n028</title>
<ellipse fill="none" stroke="#000000" cx="338.7373" cy="-307.1152" rx="27" ry="18"/>
<text text-anchor="middle" x="338.7373" y="-302.9152" font-family="Helvetica,Arial,sans-serif" font-size="14.00" fill="#000000">X</text>
</g>
<!-- n026&#45;&#45;n028 -->
<g id="edge24" class="edge">
<title>n026&#45;&#45;n028</title>
<path fill="none" stroke="#000000" d="M378.3659,-378.9718C369.6724,-363.2082 356.8585,-339.9734 348.1741,-324.2266"/>
</g>
<!-- n030 -->
<g id="node29" class="node">
<title>n030</title>
<ellipse fill="none" stroke="#000000" cx="379.8278" cy="-196.3664" rx="27" ry="18"/>
<text text-anchor="middle" x="379.8278" y="-192.1664" font-family="Helvetica,Arial,sans-serif" font-size="14.00" fill="#000000">*</text>
</g>
<!-- n029&#45;&#45;n030 -->
<g id="edge26" class="edge">
<title>n029&#45;&#45;n030</title>
<path fill="none" stroke="#000000" d="M434.0675,-234.6194C423.1604,-226.9271 409.473,-217.274 398.5769,-209.5894"/>
</g>
<!-- n031 -->
<g id="node30" class="node">
<title>n031</title>
<ellipse fill="none" stroke="#000000" cx="382.667" cy="-142.5758" rx="27" ry="18"/>
<text text-anchor="middle" x="382.667" y="-138.3758" font-family="Helvetica,Arial,sans-serif" font-size="14.00" fill="#000000">X</text>
</g>
<!-- n030&#45;&#45;n031 -->
<g id="edge27" class="edge">
<title>n030&#45;&#45;n031</title>
<path fill="none" stroke="#000000" d="M380.789,-178.1554C381.085,-172.5473 381.4108,-166.3749 381.7068,-160.7681"/>
</g>
<!-- n032 -->
<g id="node31" class="node">
<title>n032</title>
<ellipse fill="none" stroke="#000000" cx="286.4261" cy="-189.3703" rx="30.215" ry="18"/>
<text text-anchor="middle" x="286.4261" y="-185.1703" font-family="Helvetica,Arial,sans-serif" font-size="14.00" fill="#000000">EXP</text>
</g>
<!-- n030&#45;&#45;n032 -->
<g id="edge28" class="edge">
<title>n030&#45;&#45;n032</title>
<path fill="none" stroke="#000000" d="M352.8121,-194.3428C341.498,-193.4954 328.2969,-192.5066 316.6602,-191.6349"/>
</g>
<!-- n033 -->
<g id="node32" class="node">
<title>n033</title>
<ellipse fill="none" stroke="#000000" cx="237.2194" cy="-270.6707" rx="27" ry="18"/>
<text text-anchor="middle" x="237.2194" y="-266.4707" font-family="Helvetica,Arial,sans-serif" font-size="14.00" fill="#000000">*</text>
</g>
<!-- n032&#45;&#45;n033 -->
<g id="edge29" class="edge">
<title>n032&#45;&#45;n033</title>
<path fill="none" stroke="#000000" d="M275.9906,-206.612C267.5837,-220.5022 255.8288,-239.9239 247.4711,-253.7326"/>
</g>
<!-- n034 -->
<g id="node33" class="node">
<title>n034</title>
<ellipse fill="none" stroke="#000000" cx="180.858" cy="-341.7666" rx="27" ry="18"/>
<text text-anchor="middle" x="180.858" y="-337.5666" font-family="Helvetica,Arial,sans-serif" font-size="14.00" fill="#000000">X</text>
</g>
<!-- n033&#45;&#45;n034 -->
<g id="edge30" class="edge">
<title>n033&#45;&#45;n034</title>
<path fill="none" stroke="#000000" d="M224.4302,-286.8035C215.2063,-298.4387 202.8089,-314.0771 193.5967,-325.6977"/>
</g>
<!-- n035 -->
<g id="node34" class="node">
<title>n035</title>
<ellipse fill="none" stroke="#000000" cx="173.55" cy="-214.0785" rx="27" ry="18"/>
<text text-anchor="middle" x="173.55" y="-209.8785" font-family="Helvetica,Arial,sans-serif" font-size="14.00" fill="#000000">X</text>
</g>
<!-- n033&#45;&#45;n035 -->
<g id="edge31" class="edge">
<title>n033&#45;&#45;n035</title>
<path fill="none" stroke="#000000" d="M220.823,-256.0968C211.3906,-247.7129 199.5724,-237.2083 190.1122,-228.7997"/>
</g>
<!-- n037 -->
<g id="node36" class="node">
<title>n037</title>
<ellipse fill="none" stroke="#000000" cx="613.372" cy="-384.8908" rx="27" ry="18"/>
<text text-anchor="middle" x="613.372" y="-380.6908" font-family="Helvetica,Arial,sans-serif" font-size="14.00" fill="#000000">X</text>
</g>
<!-- n036&#45;&#45;n037 -->
<g id="edge33" class="edge">
<title>n036&#45;&#45;n037</title>
<path fill="none" stroke="#000000" d="M565.7665,-337.4076C575.6418,-347.2575 588.4601,-360.0429 598.3074,-369.865"/>
</g>
<!-- n038 -->
<g id="node37" class="node">
<title>n038</title>
<ellipse fill="none" stroke="#000000" cx="550.7455" cy="-265.9373" rx="27" ry="18"/>
<text text-anchor="middle" x="550.7455" y="-261.7373" font-family="Helvetica,Arial,sans-serif" font-size="14.00" fill="#000000">X</text>
</g>
<!-- n036&#45;&#45;n038 -->
<g id="edge34" class="edge">
<title>n036&#45;&#45;n038</title>
<path fill="none" stroke="#000000" d="M550.621,-304.117C550.642,-297.6874 550.6656,-290.4552 550.6865,-284.0285"/>
</g>
<!-- n039 -->
<g id="node38" class="node">
<title>n039</title>
<ellipse fill="none" stroke="#000000" cx="578.3383" cy="-762.229" rx="27" ry="18"/>
<text text-anchor="middle" x="578.3383" y="-758.029" font-family="Helvetica,Arial,sans-serif" font-size="14.00" fill="#000000">%</text>
</g>
<!-- n040 -->
<g id="node39" class="node">
<title>n040</title>
<ellipse fill="none" stroke="#000000" cx="534.1713" cy="-821.3714" rx="30.215" ry="18"/>
<text text-anchor="middle" x="534.1713" y="-817.1714" font-family="Helvetica,Arial,sans-serif" font-size="14.00" fill="#000000">EXP</text>
</g>
<!-- n039&#45;&#45;n040 -->
<g id="edge35" class="edge">
<title>n039&#45;&#45;n040</title>
<path fill="none" stroke="#000000" d="M566.2695,-778.3899C560.1396,-786.5982 552.7037,-796.5554 546.533,-804.8183"/>
</g>
<!-- n046 -->
<g id="node45" class="node">
<title>n046</title>
<ellipse fill="none" stroke="#000000" cx="576.8656" cy="-714.6144" rx="30.215" ry="18"/>
<text text-anchor="middle" x="576.8656" y="-710.4144" font-family="Helvetica,Arial,sans-serif" font-size="14.00" fill="#000000">EXP</text>
</g>
<!-- n039&#45;&#45;n046 -->
<g id="edge41" class="edge">
<title>n039&#45;&#45;n046</title>
<path fill="none" stroke="#000000" d="M577.7816,-744.228C577.6643,-740.4357 577.5405,-736.4341 577.4232,-732.6409"/>
</g>
<!-- n041 -->
<g id="node40" class="node">
<title>n041</title>
<ellipse fill="none" stroke="#000000" cx="486.9329" cy="-744.7928" rx="27" ry="18"/>
<text text-anchor="middle" x="486.9329" y="-740.5928" font-family="Helvetica,Arial,sans-serif" font-size="14.00" fill="#000000">%</text>
</g>
<!-- n040&#45;&#45;n041 -->
<g id="edge36" class="edge">
<title>n040&#45;&#45;n041</title>
<path fill="none" stroke="#000000" d="M523.6876,-804.3761C515.805,-791.5976 505.0604,-774.1795 497.2248,-761.4771"/>
</g>
<!-- n042 -->
<g id="node41" class="node">
<title>n042</title>
<ellipse fill="none" stroke="#000000" cx="383.9637" cy="-745.8697" rx="27" ry="18"/>
<text text-anchor="middle" x="383.9637" y="-741.6697" font-family="Helvetica,Arial,sans-serif" font-size="14.00" fill="#000000">X</text>
</g>
<!-- n041&#45;&#45;n042 -->
<g id="edge37" class="edge">
<title>n041&#45;&#45;n042</title>
<path fill="none" stroke="#000000" d="M459.879,-745.0757C444.8633,-745.2328 426.2383,-745.4276 411.1945,-745.5849"/>
</g>
<!-- n043 -->
<g id="node42" class="node">
<title>n043</title>
<ellipse fill="none" stroke="#000000" cx="432.9154" cy="-799.603" rx="27" ry="18"/>
<text text-anchor="middle" x="432.9154" y="-795.403" font-family="Helvetica,Arial,sans-serif" font-size="14.00" fill="#000000">%</text>
</g>
<!-- n041&#45;&#45;n043 -->
<g id="edge38" class="edge">
<title>n041&#45;&#45;n043</title>
<path fill="none" stroke="#000000" d="M471.886,-760.0605C464.3939,-767.6626 455.3627,-776.8263 447.8816,-784.4172"/>
</g>
<!-- n044 -->
<g id="node43" class="node">
<title>n044</title>
<ellipse fill="none" stroke="#000000" cx="441.8271" cy="-849.7467" rx="27" ry="18"/>
<text text-anchor="middle" x="441.8271" y="-845.5467" font-family="Helvetica,Arial,sans-serif" font-size="14.00" fill="#000000">X</text>
</g>
<!-- n043&#45;&#45;n044 -->
<g id="edge39" class="edge">
<title>n043&#45;&#45;n044</title>
<path fill="none" stroke="#000000" d="M436.1327,-817.706C436.9504,-822.3067 437.8285,-827.2474 438.6444,-831.8384"/>
</g>
<!-- n045 -->
<g id="node44" class="node">
<title>n045</title>
<ellipse fill="none" stroke="#000000" cx="435.147" cy="-698.7466" rx="27" ry="18"/>
<text text-anchor="middle" x="435.147" y="-694.5466" font-family="Helvetica,Arial,sans-serif" font-size="14.00" fill="#000000">X</text>
</g>
<!-- n043&#45;&#45;n045 -->
<g id="edge40" class="edge">
<title>n043&#45;&#45;n045</title>
<path fill="none" stroke="#000000" d="M433.3144,-781.5719C433.718,-763.3274 434.3388,-735.2717 434.744,-716.9616"/>
</g>
<!-- n047 -->
<g id="node46" class="node">
<title>n047</title>
<ellipse fill="none" stroke="#000000" cx="521.8904" cy="-662.0937" rx="27.2641" ry="18"/>
<text text-anchor="middle" x="521.8904" y="-657.8937" font-family="Helvetica,Arial,sans-serif" font-size="14.00" fill="#000000">SIN</text>
</g>
<!-- n046&#45;&#45;n047 -->
<g id="edge42" class="edge">
<title>n046&#45;&#45;n047</title>
<path fill="none" stroke="#000000" d="M560.6686,-699.1405C553.3206,-692.1206 544.6697,-683.8559 537.4053,-676.9159"/>
</g>
<!-- n048 -->
<g id="node47" class="node">
<title>n048</title>
<ellipse fill="none" stroke="#000000" cx="515.3822" cy="-610.6974" rx="27" ry="18"/>
<text text-anchor="middle" x="515.3822" y="-606.4974" font-family="Helvetica,Arial,sans-serif" font-size="14.00" fill="#000000">X</text>
</g>
<!-- n047&#45;&#45;n048 -->
<g id="edge43" class="edge">
<title>n047&#45;&#45;n048</title>
<path fill="none" stroke="#000000" d="M519.6142,-644.1178C518.9837,-639.1388 518.2992,-633.7334 517.6682,-628.75"/>
</g>
</g>
</svg>
